<?xml version="1.0" standalone="no"?>
<!DOCTYPE svg PUBLIC "-//W3C//DTD SVG 20010904//EN"
 "http://www.w3.org/TR/2001/REC-SVG-20010904/DTD/svg10.dtd">
<svg version="1.0" xmlns="http://www.w3.org/2000/svg"
 width="225.000000pt" height="225.000000pt" viewBox="0 0 225.000000 225.000000"
 preserveAspectRatio="xMidYMid meet">

<g transform="translate(0.000000,225.000000) scale(0.100000,-0.100000)"
fill="#000000" stroke="none">
<path d="M603 1887 c-2 -4 -9 -5 -14 -1 -13 8 -61 -37 -55 -51 2 -7 0 -18 -6
-26 -8 -11 -9 -10 -4 4 3 9 1 17 -4 17 -6 0 -10 -3 -10 -7 0 -5 -23 -35 -51
-68 -75 -89 -76 -90 -72 -102 2 -6 -1 -15 -8 -19 -8 -5 -10 -3 -5 7 4 8 -11
-6 -33 -31 l-40 -45 -1 -602 0 -603 825 0 825 0 0 764 c0 499 -3 767 -10 771
-5 3 -10 3 -10 -2 0 -4 -297 -6 -661 -3 -363 3 -663 2 -666 -3z m-132 -179
c-10 -11 -11 -9 -5 6 6 15 4 17 -6 11 -9 -6 -11 -4 -5 4 5 9 10 10 18 2 8 -8
7 -14 -2 -23z m-106 -108 c3 -5 1 -10 -4 -10 -6 0 -11 5 -11 10 0 6 2 10 4 10
3 0 8 -4 11 -10z m-15 -24 c0 -3 -4 -8 -10 -11 -5 -3 -10 -1 -10 4 0 6 5 11
10 11 6 0 10 -2 10 -4z m320 -210 c0 -2 -7 -7 -16 -10 -8 -3 -12 -2 -9 4 6 10
25 14 25 6z m87 -12 c-3 -3 -12 -4 -19 -1 -8 3 -5 6 6 6 11 1 17 -2 13 -5z
m-280 -20 c-3 -3 -12 -4 -19 -1 -8 3 -5 6 6 6 11 1 17 -2 13 -5z m160 0 c-3
-3 -12 -4 -19 -1 -8 3 -5 6 6 6 11 1 17 -2 13 -5z m110 0 c-3 -3 -12 -4 -19
-1 -8 3 -5 6 6 6 11 1 17 -2 13 -5z m-217 -14 c0 -5 -2 -10 -4 -10 -3 0 -8 5
-11 10 -3 6 -1 10 4 10 6 0 11 -4 11 -10z m-25 -57 c7 -54 8 -56 16 -28 5 17
7 35 5 41 -3 7 5 9 20 6 18 -3 25 -13 30 -40 6 -31 8 -33 15 -17 4 11 8 37 8
58 1 31 4 38 19 35 11 -2 16 -12 15 -28 -1 -14 -4 -55 -5 -91 -2 -37 -6 -62
-9 -57 -3 5 -9 9 -13 9 -26 -4 -36 2 -42 24 -3 14 -10 25 -14 25 -4 0 -11 -11
-14 -25 -5 -18 -13 -25 -30 -25 -22 0 -24 5 -33 78 -11 82 -10 92 11 92 9 0
16 -20 21 -57z m289 25 c9 -12 16 -35 16 -50 0 -27 -2 -28 -55 -28 -30 0 -55
-4 -55 -9 0 -19 31 -33 65 -29 28 3 35 1 35 -14 0 -10 -9 -20 -22 -22 -47 -10
-79 -13 -74 -8 3 2 -5 13 -18 23 -32 25 -36 109 -6 139 29 29 93 28 114 -2z
m-27 -104 c-3 -3 -12 -4 -19 -1 -8 3 -5 6 6 6 11 1 17 -2 13 -5z m-100 -53 c0
-11 -7 -17 -14 -14 -9 4 -9 8 0 19 16 17 16 17 14 -5z m228 -31 c15 0 34 14
29 22 -4 6 3 5 15 -1 25 -14 24 -13 9 -46 -12 -26 -42 -34 -54 -13 -4 7 -9 26
-10 43 -1 16 0 22 3 13 2 -10 6 -18 8 -18z m385 26 c0 -2 -7 -6 -15 -10 -8 -3
-15 -1 -15 4 0 6 7 10 15 10 8 0 15 -2 15 -4z m-735 -16 c3 -5 1 -10 -4 -10
-6 0 -11 5 -11 10 0 6 2 10 4 10 3 0 8 -4 11 -10z m155 -52 c0 -24 4 -38 8
-32 13 21 60 22 78 3 34 -38 31 -174 -4 -167 -14 3 -16 13 -14 64 3 57 2 62
-19 67 -36 9 -49 -10 -49 -69 0 -46 -3 -54 -19 -54 -17 0 -19 9 -18 115 0 105
2 115 19 115 15 0 18 -8 18 -42z m555 16 c-2 -18 2 -24 11 -20 8 3 18 -4 24
-17 10 -20 10 -21 -3 -4 -11 13 -17 15 -22 6 -4 -6 -1 -15 6 -20 11 -7 10 -9
-3 -9 -10 0 -18 -7 -18 -15 0 -19 25 -8 54 24 11 12 27 21 38 21 19 0 24 -15
8 -25 -6 -4 -8 -11 -4 -16 3 -5 0 -8 -8 -7 -7 2 -12 -3 -10 -10 1 -8 -2 -11
-7 -8 -19 12 -19 -11 1 -42 11 -18 25 -29 31 -25 6 3 7 1 3 -5 -4 -7 -3 -12 3
-12 6 0 8 -7 5 -15 -9 -23 -44 -8 -81 34 l-31 36 3 -37 c3 -34 1 -38 -19 -38
-18 0 -22 5 -20 28 1 15 2 66 3 115 1 79 3 87 20 87 15 0 19 -6 16 -26z m-705
-9 c0 -22 4 -25 35 -25 29 0 35 -4 35 -20 0 -12 -6 -20 -12 -19 -53 7 -59 1
-56 -48 3 -46 4 -48 36 -51 24 -3 32 -8 32 -24 0 -17 -5 -19 -42 -15 -52 6
-68 27 -68 88 0 42 -3 48 -22 51 -13 2 -23 10 -23 18 0 8 10 16 23 18 16 3 22
10 22 28 0 17 5 24 20 24 15 0 20 -7 20 -25z m390 -95 l0 -69 30 -3 c55 -6 18
-29 -52 -33 -58 -3 -67 -1 -71 16 -4 15 0 19 24 19 28 0 29 1 29 50 0 41 -3
50 -17 50 -15 0 -16 -2 -3 -10 13 -8 13 -10 -2 -10 -24 0 -48 11 -48 22 0 6 7
4 16 -3 15 -12 16 -11 10 8 -10 33 -2 39 43 35 l41 -4 0 -68z m218 73 c0 -5 2
-15 6 -24 10 -24 3 -152 -9 -156 -6 -2 -20 4 -30 13 -11 8 -14 13 -7 9 9 -5
12 9 12 53 0 41 -4 62 -13 65 -28 11 -42 -12 -47 -75 -4 -49 -9 -64 -22 -66
-16 -3 -18 6 -18 88 0 86 1 92 19 87 11 -2 35 -1 53 3 45 11 58 11 56 3z m37
-14 c11 -16 1 -19 -13 -3 -7 8 -8 14 -3 14 5 0 13 -5 16 -11z m-737 -44 c-3
-3 -9 2 -12 12 -6 14 -5 15 5 6 7 -7 10 -15 7 -18z m892 -40 c-5 -7 -6 -16 -2
-21 4 -4 -1 -2 -10 5 -20 15 -17 28 6 28 11 0 13 -4 6 -12z m-467 -22 c-7 -2
-19 -2 -25 0 -7 3 -2 5 12 5 14 0 19 -2 13 -5z m104 1 c-3 -3 -12 -4 -19 -1
-8 3 -5 6 6 6 11 1 17 -2 13 -5z m-418 -77 c13 4 14 3 2 -5 -16 -11 -44 -1
-57 20 -4 6 3 4 15 -5 13 -8 31 -13 40 -10z m115 -12 c-4 -8 -8 -15 -10 -15
-2 0 -4 7 -4 15 0 8 4 15 10 15 5 0 7 -7 4 -15z m573 9 c-3 -3 -12 -4 -19 -1
-8 3 -5 6 6 6 11 1 17 -2 13 -5z m-650 -36 c-3 -7 -5 -2 -5 12 0 14 2 19 5 13
2 -7 2 -19 0 -25z m378 20 c4 -3 6 -54 7 -112 0 -97 9 -132 22 -88 4 13 4 12
3 -3 -2 -16 -10 -20 -40 -20 -32 0 -36 -3 -32 -20 3 -11 2 -14 -1 -7 -5 10 -9
10 -22 0 -15 -12 -16 -11 -3 5 15 19 2 24 -17 5 -9 -9 -12 -9 -12 1 0 7 -4 10
-9 6 -17 -10 -41 38 -41 83 0 53 33 92 80 92 28 0 30 3 30 34 0 32 16 43 35
24z m182 6 c-3 -3 -12 -4 -19 -1 -8 3 -5 6 6 6 11 1 17 -2 13 -5z m-90 -10
c-3 -3 -12 -4 -19 -1 -8 3 -5 6 6 6 11 1 17 -2 13 -5z m-551 -26 c15 -18 16
-20 2 -9 -10 7 -25 10 -34 7 -14 -5 -15 -4 -4 9 16 19 13 19 36 -7z m287 -3
c-10 -13 -24 -25 -31 -25 -7 0 0 11 15 25 35 31 38 31 16 0z m273 -12 c-10
-10 -19 5 -10 18 6 11 8 11 12 0 2 -7 1 -15 -2 -18z m-431 -3 c-10 -11 -21
-17 -24 -14 -3 3 3 12 13 20 28 20 32 17 11 -6z m-37 -32 c3 -15 -4 -18 -37
-18 -31 0 -43 -5 -51 -21 -15 -27 -4 -73 15 -65 8 3 15 1 15 -4 0 -6 8 -10 18
-10 15 0 15 2 2 11 -12 9 -12 10 3 5 10 -3 23 -6 28 -6 17 0 9 -40 -8 -41 -10
0 -33 -1 -51 -2 -19 -1 -36 2 -39 7 -3 4 -10 2 -15 -5 -7 -10 -8 -8 -3 8 3 12
1 24 -5 28 -5 3 -10 24 -10 46 0 58 35 91 93 87 30 -2 43 -8 45 -20z m179 -5
c19 -19 27 -36 25 -53 -5 -38 -23 -80 -36 -80 -6 0 -4 -5 4 -11 11 -8 6 -9
-22 -4 -21 3 -39 1 -43 -5 -3 -5 -12 -10 -18 -10 -8 0 -8 3 1 9 10 6 7 10 -12
13 -15 3 -29 1 -32 -3 -3 -5 -13 -9 -22 -8 -12 0 -11 3 6 9 24 10 25 11 16 34
-3 8 -11 14 -17 12 -7 -1 -9 -1 -4 1 4 3 7 16 7 29 0 30 24 80 42 87 35 14 78
6 105 -20z m356 14 c10 -6 20 -29 24 -50 l6 -37 -57 0 c-49 0 -57 -2 -54 -17
3 -14 14 -18 51 -17 39 0 47 -3 47 -18 0 -13 -8 -18 -27 -18 -21 0 -24 -3 -15
-12 7 -7 12 -16 12 -20 0 -4 -9 1 -21 13 -15 15 -28 19 -46 14 -16 -4 -22 -2
-18 5 3 5 2 10 -3 10 -5 0 -15 13 -22 29 -14 36 -5 86 21 112 22 22 77 25 102
6z m-320 -12 c-3 -9 -8 -14 -10 -11 -3 3 -2 9 2 15 9 16 15 13 8 -4z m312 -95
c3 -5 1 -10 -4 -10 -6 0 -11 5 -11 10 0 6 2 10 4 10 3 0 8 -4 11 -10z m-315
-65 c0 -8 -2 -15 -4 -15 -2 0 -6 7 -10 15 -3 8 -1 15 4 15 6 0 10 -7 10 -15z
m180 1 c0 -2 -7 -7 -16 -10 -8 -3 -12 -2 -9 4 6 10 25 14 25 6z m165 -6 c-3
-5 -11 -10 -16 -10 -6 0 -7 5 -4 10 3 6 11 10 16 10 6 0 7 -4 4 -10z m204 -23
c18 -23 2 -27 -94 -27 -96 0 -107 3 -98 26 7 19 176 20 192 1z m-232 -49 c-3
-8 -6 -5 -6 6 -1 11 2 17 5 13 3 -3 4 -12 1 -19z m793 -128 c0 -5 -5 -10 -11
-10 -5 0 -7 5 -4 10 3 6 8 10 11 10 2 0 4 -4 4 -10z"/>
<path d="M712 1268 c-20 -20 -14 -28 23 -28 19 0 35 4 35 8 0 12 -22 32 -35
32 -6 0 -16 -5 -23 -12z"/>
<path d="M935 1100 c3 -5 8 -10 11 -10 2 0 4 5 4 10 0 6 -5 10 -11 10 -5 0 -7
-4 -4 -10z"/>
<path d="M886 714 c-11 -28 -6 -61 9 -74 23 -19 55 14 55 57 0 30 -3 33 -29
33 -17 0 -31 -6 -35 -16z m49 -23 c3 -5 1 -12 -5 -16 -5 -3 -10 1 -10 9 0 18
6 21 15 7z"/>
<path d="M713 732 c-33 -21 -20 -102 17 -102 28 0 53 41 44 74 -3 15 -9 25
-12 22 -2 -3 -12 -1 -21 4 -10 5 -22 6 -28 2z"/>
<path d="M1083 733 c-28 -11 -13 -33 22 -33 27 0 33 3 29 15 -5 12 -9 13 -20
4 -8 -7 -17 -9 -21 -5 -3 3 -1 6 5 6 7 0 12 5 12 10 0 11 -7 12 -27 3z"/>
</g>
</svg>
